<?xml version="1.0" standalone="no"?>
<!DOCTYPE svg PUBLIC "-//W3C//DTD SVG 20010904//EN"
 "http://www.w3.org/TR/2001/REC-SVG-20010904/DTD/svg10.dtd">
<svg version="1.0" xmlns="http://www.w3.org/2000/svg"
 width="828.000000pt" height="828.000000pt" viewBox="0 0 828.000000 828.000000"
 preserveAspectRatio="xMidYMid meet">
<metadata>
Created by potrace 1.14, written by Peter Selinger 2001-2017
</metadata>
<g transform="translate(0.000000,828.000000) scale(0.100000,-0.100000)"
fill="#000000" stroke="none">
<path d="M3073 8262 c-28 -10 -71 -31 -95 -48 -24 -17 -69 -41 -101 -54 -93
-37 -130 -66 -337 -270 -67 -67 -94 -102 -124 -163 -20 -42 -39 -88 -42 -101
-2 -13 -11 -40 -19 -60 -8 -20 -15 -38 -14 -41 1 -3 -3 -18 -9 -33 -5 -15 -31
-108 -58 -207 -38 -144 -59 -202 -105 -292 -73 -143 -83 -157 -194 -277 -6 -6
-24 -29 -40 -51 -16 -22 -47 -60 -70 -85 -118 -134 -211 -298 -231 -410 -3
-14 -7 -32 -10 -40 -4 -8 -8 -26 -9 -40 -8 -67 -15 -101 -21 -111 -3 -6 -8
-30 -9 -53 -1 -22 -8 -62 -15 -88 -7 -26 -10 -62 -7 -80 11 -71 19 -104 32
-133 38 -82 67 -240 70 -380 3 -110 9 -155 26 -210 30 -94 30 -89 9 -153 -24
-75 -20 -150 11 -194 26 -37 41 -49 118 -96 30 -18 62 -44 72 -56 22 -28 73
-54 124 -62 21 -3 47 -8 59 -10 11 -2 37 -6 56 -9 37 -5 53 -8 135 -25 28 -6
60 -12 73 -15 12 -2 26 -6 30 -9 5 -3 22 -7 38 -10 80 -14 224 -62 227 -76 6
-29 -15 -60 -42 -61 -14 -1 -60 -2 -101 -4 -102 -3 -159 -12 -265 -40 -49 -13
-107 -26 -129 -29 -21 -4 -42 -9 -47 -12 -5 -3 -17 -7 -26 -9 -10 -2 -66 -19
-124 -38 -112 -37 -169 -52 -182 -49 -17 5 -89 -41 -136 -85 -91 -87 -104 -97
-132 -100 -54 -6 -101 -36 -123 -78 -11 -22 -25 -45 -31 -51 -12 -13 -37 -70
-81 -189 -33 -91 -26 -156 28 -274 33 -73 32 -67 42 -132 7 -44 6 -49 -22 -75
-32 -32 -63 -114 -66 -174 -1 -28 27 -110 37 -110 6 0 7 -3 4 -7 -16 -15 144
-138 193 -148 46 -10 140 -115 140 -157 0 -23 -2 -14 14 -79 13 -57 14 -186 1
-247 -21 -105 181 -288 339 -307 48 -6 110 8 132 29 6 6 51 47 99 91 48 44
102 93 119 109 86 80 123 92 226 73 19 -4 55 -9 80 -11 25 -3 63 -9 85 -14 54
-12 117 -7 158 13 19 9 69 54 110 99 117 128 168 146 274 94 60 -29 77 -32
156 -33 102 0 106 -3 118 -93 7 -52 67 -192 82 -192 4 0 7 -6 7 -14 0 -7 6
-19 14 -25 8 -7 17 -25 21 -40 5 -26 100 -140 111 -133 25 14 88 -53 114 -123
20 -52 100 -190 119 -205 11 -9 96 -124 122 -165 30 -48 69 -130 69 -146 0 -6
9 -27 21 -45 11 -19 18 -34 14 -34 -3 0 2 -12 13 -28 16 -23 30 -50 37 -72 1
-3 15 -34 32 -70 35 -74 66 -166 87 -260 15 -66 16 -282 1 -345 -3 -16 -7 -77
-8 -135 -1 -87 2 -112 18 -145 l20 -40 170 0 170 0 14 43 c13 42 12 45 -19
105 -18 34 -34 69 -35 77 -1 8 -7 28 -14 45 -7 16 -14 46 -16 65 -3 32 -6 51
-22 135 -3 17 -7 86 -9 155 -3 139 13 250 48 328 12 26 22 49 23 52 1 3 7 18
13 33 7 16 12 36 12 44 0 23 40 103 51 103 5 0 9 6 9 13 0 15 91 62 140 71 19
4 46 10 60 12 13 3 27 8 30 12 5 7 46 27 65 32 6 1 19 7 30 13 11 6 23 10 27
9 3 -1 19 15 35 35 15 20 33 41 38 47 24 28 34 58 40 122 8 88 17 154 30 211
3 12 7 41 10 65 8 64 16 101 28 123 6 11 12 22 13 25 0 3 3 12 7 20 12 33 30
95 33 119 2 14 6 40 10 56 8 41 6 101 -6 155 -10 44 -7 181 4 250 9 50 9 151
2 191 -12 60 -49 152 -90 224 -22 39 -43 72 -46 75 -3 3 -17 21 -30 40 -23 32
-50 66 -75 94 -13 14 -13 52 0 65 10 10 85 23 130 22 20 0 60 -8 60 -11 0 -1
16 -4 35 -7 66 -9 267 -88 300 -118 11 -10 20 -15 20 -10 0 4 7 2 15 -5 8 -7
15 -10 15 -6 0 4 24 -11 53 -33 97 -72 139 -86 252 -86 83 0 109 4 154 23 29
13 61 29 69 35 44 33 149 149 166 183 11 21 36 56 55 77 19 20 32 37 28 37 -8
0 2 14 38 53 11 12 49 65 83 117 34 52 66 100 71 106 4 5 13 20 20 31 6 12 17
28 25 36 25 25 138 201 153 240 8 20 19 37 23 37 4 0 22 35 40 77 19 43 37 83
41 88 4 6 28 62 54 125 25 63 50 124 55 135 43 93 119 290 125 325 2 8 4 15 5
15 1 0 3 7 5 15 15 58 25 100 30 130 3 19 8 42 10 50 2 8 7 40 10 70 3 30 10
66 14 80 14 36 32 121 36 166 4 41 15 107 39 238 8 44 13 127 12 190 -1 94 -5
118 -25 155 -63 120 -190 203 -316 207 -38 1 -81 -3 -95 -8 -14 -5 -48 -11
-75 -13 -28 -2 -69 -11 -90 -20 -22 -10 -55 -19 -73 -20 -19 -1 -40 -12 -52
-25 -11 -13 -20 -20 -20 -17 0 11 -75 -25 -111 -54 -20 -16 -39 -26 -42 -22
-4 3 -24 -5 -44 -19 -21 -14 -55 -31 -77 -38 -21 -7 -63 -34 -92 -61 -30 -27
-62 -49 -72 -49 -9 0 -26 -14 -37 -31 -11 -16 -58 -53 -104 -81 -84 -51 -183
-138 -194 -169 -3 -9 -23 -30 -44 -45 -21 -15 -83 -73 -138 -129 -135 -135
-193 -185 -215 -185 -10 0 -34 -16 -53 -35 -19 -19 -39 -35 -45 -35 -5 0 -27
-16 -48 -35 -22 -19 -44 -35 -51 -35 -6 0 -21 -14 -33 -30 -12 -17 -34 -37
-48 -44 -15 -8 -57 -43 -94 -77 -38 -35 -72 -63 -77 -61 -5 2 -17 -8 -27 -22
-9 -14 -21 -26 -28 -26 -6 0 -25 -20 -43 -43 -17 -23 -48 -60 -68 -82 -20 -22
-46 -53 -58 -70 -12 -16 -24 -32 -27 -35 -3 -3 -13 -17 -23 -32 -9 -15 -36
-40 -61 -57 -24 -17 -46 -41 -49 -53 -4 -13 -33 -49 -65 -81 -53 -52 -62 -58
-81 -48 -25 14 -27 39 -5 89 18 40 20 44 27 84 8 40 56 95 88 102 18 3 34 16
44 36 8 16 13 30 11 30 -2 0 5 11 17 24 46 51 116 193 123 246 18 157 26 647
11 690 -5 14 -11 70 -13 125 -3 97 -6 125 -19 217 -19 123 -71 318 -89 330 -6
4 -8 8 -4 8 6 0 -19 70 -51 145 -5 11 -18 40 -28 65 -11 25 -42 101 -69 168
-38 95 -55 127 -74 137 -14 7 -26 23 -27 35 -1 12 -11 40 -22 63 -11 23 -40
103 -65 177 -25 74 -50 144 -55 155 -10 21 -22 56 -23 65 0 3 -9 17 -20 33
-11 15 -17 27 -13 27 7 0 -68 141 -96 182 -11 14 -19 33 -19 42 0 9 -4 16 -10
16 -5 0 -10 5 -10 11 0 11 -67 112 -114 173 -44 56 -174 184 -181 178 -3 -3
-5 0 -5 6 0 6 -44 43 -97 83 -54 40 -102 80 -107 89 -5 8 -34 40 -65 71 -31
31 -75 78 -99 105 -56 65 -123 95 -222 100 -53 2 -90 -2 -127 -14z"/>
<path d="M1062 2151 c-20 -13 -39 -28 -42 -32 -3 -4 -17 -12 -32 -18 -30 -11
-67 -82 -75 -144 -11 -88 78 -217 163 -234 107 -21 214 27 256 117 38 81 33
183 -11 225 -70 66 -117 105 -131 107 -62 7 -94 2 -128 -21z"/>
</g>
</svg>
