<?xml version="1.0" standalone="no"?>
<!DOCTYPE svg PUBLIC "-//W3C//DTD SVG 20010904//EN"
 "http://www.w3.org/TR/2001/REC-SVG-20010904/DTD/svg10.dtd">
<svg version="1.0" xmlns="http://www.w3.org/2000/svg"
 width="468.000000pt" height="468.000000pt" viewBox="0 0 468.000000 468.000000"
 preserveAspectRatio="xMidYMid meet">
<metadata>
Created by potrace 1.14, written by Peter Selinger 2001-2017
</metadata>
<g transform="translate(0.000000,468.000000) scale(0.100000,-0.100000)"
fill="#000000" stroke="none">
<path d="M1433 4443 c-13 -7 -26 -12 -28 -12 -25 -2 -137 -72 -176 -110 -27
-26 -50 -46 -52 -44 -2 1 -10 -8 -17 -22 -7 -14 -17 -25 -21 -25 -9 0 -53 -70
-56 -90 -1 -8 -18 -69 -38 -135 -19 -66 -37 -127 -39 -136 -9 -37 -47 -109
-57 -109 -6 0 -8 -4 -5 -8 3 -5 -10 -26 -29 -47 -19 -21 -35 -41 -35 -45 0 -4
-9 -10 -21 -13 -12 -3 -18 -10 -15 -16 4 -5 -2 -15 -13 -20 -11 -6 -27 -29
-37 -50 -10 -22 -21 -38 -26 -35 -5 3 -7 2 -6 -3 1 -4 -8 -28 -21 -52 -12 -24
-24 -51 -26 -60 -2 -9 -12 -60 -23 -114 l-21 -98 21 -72 c27 -99 28 -103 34
-177 2 -36 7 -78 10 -95 3 -16 8 -43 10 -58 3 -16 2 -36 -2 -45 -21 -50 -1
-113 45 -136 14 -8 39 -25 55 -39 29 -25 52 -32 134 -42 23 -2 51 -9 62 -15
11 -6 20 -9 20 -6 0 7 142 -32 152 -42 18 -18 -3 -33 -45 -31 -44 1 -85 -4
-177 -23 -62 -13 -60 -13 -80 -21 -33 -13 -111 -37 -118 -36 -15 3 -72 -23
-72 -34 0 -6 -3 -8 -6 -4 -4 3 -14 -2 -23 -13 -19 -22 -85 -60 -105 -60 -12 0
-66 -97 -80 -146 -14 -47 -14 -88 0 -116 8 -15 20 -45 27 -66 11 -33 10 -40
-9 -69 -26 -39 -29 -119 -5 -149 18 -22 96 -77 123 -87 9 -3 24 -20 33 -37 18
-34 27 -153 14 -186 -4 -13 -3 -26 4 -33 6 -6 8 -11 5 -11 -15 0 61 -67 100
-88 65 -36 109 -33 157 10 16 16 34 28 38 28 5 0 6 4 2 9 -3 6 5 15 17 22 13
7 39 25 59 41 33 27 39 28 80 19 90 -21 195 -11 204 20 4 11 12 19 20 19 7 0
12 7 11 16 0 9 6 20 14 24 8 4 25 12 37 18 30 16 43 15 63 -3 11 -10 40 -16
79 -18 l61 -2 -2 -30 c-3 -52 86 -203 132 -223 19 -9 35 -29 50 -65 13 -29 24
-55 24 -59 1 -3 20 -27 44 -51 23 -25 42 -49 42 -53 0 -4 17 -44 39 -88 82
-171 92 -197 101 -248 5 -29 7 -108 4 -175 -6 -167 14 -206 104 -205 39 1 51
6 75 32 30 34 30 48 -5 128 -24 59 -37 142 -33 227 3 81 7 101 30 145 9 18 18
39 20 48 11 55 25 71 82 92 32 12 63 23 68 24 18 3 60 28 75 45 18 18 38 68
38 91 0 19 10 105 13 105 1 0 3 11 4 25 1 14 5 33 9 42 3 10 9 26 13 35 3 10
8 25 11 33 3 8 7 74 9 145 8 244 10 223 -36 312 -23 45 -54 94 -67 108 -13 15
-21 31 -18 37 8 13 124 3 174 -15 43 -16 123 -57 130 -67 11 -17 70 -39 119
-46 40 -5 61 -2 94 12 59 27 92 62 197 215 51 74 102 144 113 157 11 12 17 22
13 22 -4 0 1 12 12 28 30 43 82 142 75 142 -4 0 -2 5 5 12 7 7 12 20 12 29 0
10 7 24 15 33 9 8 15 19 15 23 0 4 10 31 22 58 12 28 22 52 23 55 7 29 27 98
32 110 7 19 9 26 17 70 3 19 10 60 16 90 7 30 14 71 17 90 2 19 8 49 12 65 4
17 8 67 10 112 2 76 1 85 -24 118 -15 19 -24 35 -19 35 30 0 -70 44 -123 54
-15 3 -91 -10 -141 -24 -31 -9 -39 -13 -54 -21 -10 -5 -25 -9 -33 -9 -8 0 -15
-4 -15 -10 0 -5 -9 -10 -20 -10 -11 0 -20 -4 -20 -10 0 -5 -7 -10 -15 -10 -8
0 -15 -4 -15 -10 0 -5 -7 -10 -15 -10 -19 0 -52 -18 -81 -45 -40 -37 -64 -55
-73 -55 -5 0 -11 -4 -13 -8 -1 -4 -24 -23 -50 -41 -26 -19 -50 -42 -53 -53 -4
-10 -10 -18 -15 -18 -4 0 -45 -36 -90 -80 -45 -44 -88 -80 -96 -80 -8 0 -14
-4 -14 -8 0 -4 -14 -16 -30 -26 -17 -9 -41 -27 -53 -39 -12 -12 -48 -42 -80
-66 -63 -48 -153 -143 -170 -178 -5 -13 -14 -23 -18 -23 -12 0 -49 -33 -49
-42 0 -14 -53 -68 -67 -68 -16 0 -16 5 2 59 15 41 36 71 50 71 12 0 30 24 55
73 14 26 28 47 31 47 3 0 6 6 7 13 0 6 4 32 8 57 12 83 7 304 -11 479 -6 57
-43 187 -65 231 -10 19 -17 37 -17 40 2 11 -66 166 -76 175 -11 9 -51 112 -62
157 -8 36 -83 195 -111 237 -16 24 -36 55 -45 68 -9 14 -37 44 -62 68 -24 24
-43 46 -41 47 2 2 -15 15 -36 28 -22 14 -40 31 -40 38 0 7 -4 11 -8 8 -5 -3
-21 10 -37 29 -15 19 -30 33 -35 30 -4 -2 -16 11 -26 31 -11 20 -29 37 -44 41
-14 3 -28 11 -32 16 -9 15 -87 15 -115 0z"/>
<path d="M425 1390 c-4 -6 -10 -8 -14 -5 -9 5 -28 -16 -48 -52 -19 -33 -16
-70 9 -114 17 -30 30 -40 57 -46 53 -10 54 -10 81 3 45 22 64 52 66 105 2 43
-2 54 -31 84 -27 29 -40 35 -73 35 -22 0 -44 -5 -47 -10z"/>
</g>
</svg>
